<svg xmlns="http://www.w3.org/2000/svg"  viewBox="0 0 30 30" width="30px" height="30px"><path fill="#5e9c76" d="M20.826,24.117c-0.241,0.055-0.491,0.102-0.752,0.138c-2.22,0.307-4.811-0.126-7.295-1.222 c-1.121-0.495-2.151-1.101-3.067-1.782c0.013-0.121,0.037-0.243,0.053-0.364c-0.317-0.213-0.62-0.434-0.915-0.661 c-0.016,0.096-0.039,0.193-0.053,0.288c-0.617-0.546-1.145-1.135-1.601-1.747c-1.068-1.08-1.899-2.244-2.451-3.43 c0.069,1.188,0.532,2.448,1.39,3.697c0.664,0.967,1.529,1.873,2.542,2.684c-0.099,1.58,0.07,3.097,0.525,4.448 c-1.624-1.15-2.89-2.779-3.593-4.711l-0.953,0.308C6.2,26.057,10.27,29,15,29c4.132,0,7.73-2.296,9.609-5.674 C23.495,23.781,22.211,24.045,20.826,24.117z M15,28c-1.56,0-3.04-0.354-4.361-0.989c-0.691-1.311-1.019-2.891-1.001-4.579 c0.84,0.573,1.759,1.084,2.738,1.516c2.088,0.921,4.258,1.403,6.259,1.403c0.54,0,1.067-0.035,1.577-0.105 c0.84-0.117,1.594-0.333,2.263-0.626C20.642,26.687,17.974,28,15,28z"/><path fill="#7496c4" d="M20.473,19.168c-0.528,0.522-1.118,1.033-1.762,1.521l0.675,0.741 c0.89-0.683,1.677-1.408,2.35-2.148C21.321,19.261,20.9,19.223,20.473,19.168z"/><path fill="#4e7ab5" d="M10.563 9.809c-1.226.129-2.309.462-3.205.963.146.29.308.578.487.864.78-.438 1.744-.728 2.854-.838L10.563 9.809zM15.282 7.004v1.001c1.151.033 2.25.269 3.273.66-2.958.611-5.885 2.94-7.798 6.255.255.214.519.423.793.627 2.096-3.727 5.527-6.151 8.699-6.042.58.36 1.121.775 1.614 1.242-1.152-.349-2.63-.343-4.321.055l.2.98c2.538-.604 4.539-.265 5.294.922.958 1.507-.159 4.089-2.565 6.464.427.055.848.093 1.263.114 1.495-1.645 2.419-3.364 2.592-4.856C24.756 15.538 25 16.74 25 18c0 .372-.025.737-.066 1.099.351-.063.693-.139 1.024-.23C25.981 18.582 26 18.293 26 18 26 12.029 21.218 7.154 15.282 7.004z"/><path fill="#7496c4" d="M10.758 14.92c-.25.434-.487.88-.701 1.346-.594 1.298-.985 2.637-1.207 3.959.295.226.598.448.915.661.182-1.393.568-2.82 1.201-4.204.179-.392.378-.768.584-1.135C11.277 15.343 11.013 15.134 10.758 14.92zM24.934 19.099c-.104.936-.335 1.835-.68 2.677-.589 1.148-1.782 1.964-3.428 2.342 1.385-.072 2.669-.336 3.783-.791.206-.371.398-.751.561-1.147.031-.063.072-.198.072-.198.382-.978.627-2.023.715-3.112C25.627 18.96 25.285 19.036 24.934 19.099zM6.042 13.509c.344-.78.973-1.408 1.803-1.874-.179-.286-.341-.574-.487-.864-1.019.57-1.798 1.354-2.231 2.334-.307.695-.428 1.448-.383 2.231.552 1.186 1.383 2.351 2.451 3.43-.075-.101-.166-.197-.237-.299C5.74 16.693 5.415 14.932 6.042 13.509z"/><path fill="#4e7ab5" d="M15 5.5c-.276 0-.5-.224-.5-.5V2c0-.276.224-.5.5-.5s.5.224.5.5v3C15.5 5.276 15.276 5.5 15 5.5zM8.672 7.302c-.173 0-.341-.089-.434-.25l-1.5-2.598C6.6 4.215 6.682 3.909 6.921 3.771 7.16 3.632 7.466 3.714 7.604 3.954l1.5 2.598c.138.239.056.545-.183.683C8.843 7.281 8.757 7.302 8.672 7.302z"/><path fill="#7496c4" d="M4.065,11.879c-0.085,0-0.171-0.021-0.25-0.067l-2.598-1.5c-0.239-0.138-0.321-0.444-0.183-0.683 s0.444-0.321,0.683-0.183l2.598,1.5c0.239,0.138,0.321,0.444,0.183,0.683C4.406,11.79,4.238,11.879,4.065,11.879z"/><path fill="#4e7ab5" d="M21.295 7.302c-.085 0-.171-.021-.25-.067-.239-.138-.321-.444-.183-.683l1.5-2.598c.138-.239.443-.322.683-.183.239.138.321.444.183.683l-1.5 2.598C21.636 7.212 21.468 7.302 21.295 7.302zM25.902 11.879c-.173 0-.341-.089-.434-.25-.138-.239-.056-.545.183-.683l2.598-1.5c.238-.139.544-.057.683.183.138.239.056.545-.183.683l-2.598 1.5C26.073 11.857 25.987 11.879 25.902 11.879z"/><path fill="#a2b9d8" d="M19.947,19.976c-0.06-0.055-0.122-0.104-0.183-0.147c-0.337,0.297-0.694,0.589-1.07,0.873 c0.108,0.227,0.274,0.454,0.485,0.644c0.051,0.046,0.102,0.087,0.153,0.126c0.379-0.289,0.741-0.586,1.082-0.888 C20.306,20.369,20.146,20.157,19.947,19.976z"/><path fill="#d1dceb" d="M19.374,20.584c-0.084-0.081-0.17-0.152-0.257-0.211c-0.341,0.274-0.699,0.541-1.073,0.8 c0.097,0.247,0.264,0.5,0.485,0.715c0.034,0.033,0.069,0.064,0.103,0.094c0.4-0.278,0.782-0.565,1.145-0.859 C19.679,20.934,19.542,20.748,19.374,20.584z"/><path fill="#fff" d="M18.273,22.226c0.293-0.195,0.577-0.395,0.852-0.598c-0.085-0.151-0.194-0.299-0.325-0.435 c-0.117-0.121-0.24-0.221-0.364-0.299c-0.232,0.17-0.471,0.336-0.716,0.499L18.273,22.226z"/><path fill="#89a6ce" d="M9.4,10.632c0.015,0.134,0.042,0.259,0.078,0.373c0.429-0.106,0.888-0.181,1.375-0.221 c0.043-0.208,0.056-0.436,0.031-0.667c-0.013-0.119-0.036-0.23-0.066-0.332c-0.487,0.039-0.952,0.11-1.393,0.211 C9.386,10.195,9.375,10.412,9.4,10.632z"/><path fill="#c4d3e6" d="M11.667,10.076c-0.009-0.116-0.026-0.225-0.052-0.327c-0.485,0.005-0.951,0.039-1.397,0.101 c-0.046,0.198-0.064,0.417-0.047,0.64c0.01,0.13,0.031,0.253,0.061,0.365c0.435-0.066,0.896-0.102,1.38-0.106 C11.664,10.542,11.685,10.311,11.667,10.076z"/><path fill="#fff" d="M10.996 9.772c-.042.18-.062.376-.054.578.006.152.028.294.062.423.308-.021.627-.028.956-.021l.018-1C11.642 9.744 11.315 9.751 10.996 9.772zM15 8.012c.341 0 .678.016 1.01.047.099-.192.173-.415.208-.652.019-.125.026-.245.022-.359C15.833 7.007 15.419 6.986 15 6.986V8.012z"/><path fill="#c4d3e6" d="M15.466,7.011c-0.066,0.168-0.112,0.353-0.133,0.547c-0.018,0.16-0.016,0.311,0.002,0.449 c0.453,0.016,0.899,0.062,1.334,0.138c0.052-0.103,0.097-0.215,0.132-0.334c0-0.008,0-0.016,0-0.024 c0.007-0.185,0.039-0.365,0.089-0.532c0.001-0.031,0.001-0.061,0.001-0.091C16.425,7.082,15.949,7.031,15.466,7.011z"/><path fill="#89a6ce" d="M16.825,8.172c-0.02-0.119-0.029-0.248-0.024-0.385c0.009-0.217,0.05-0.428,0.117-0.619 c-0.236-0.042-0.475-0.076-0.717-0.102c-0.071,0.185-0.119,0.392-0.135,0.606c-0.01,0.138-0.006,0.268,0.01,0.388 c0.439,0.049,0.87,0.127,1.29,0.231C17.188,8.247,17.007,8.207,16.825,8.172z"/><path fill="#fff" d="M18.274,11.023c-0.04-0.125-0.089-0.241-0.146-0.344c-0.386,0.072-0.785,0.166-1.195,0.282 l0.271,0.962c0.403-0.114,0.794-0.205,1.172-0.273C18.375,11.449,18.342,11.235,18.274,11.023z"/><path fill="#c4d3e6" d="M18.766,11.585c-0.003-0.017-0.006-0.034-0.008-0.051c-0.044-0.303-0.021-0.607,0.054-0.867 c-0.014-0.031-0.029-0.06-0.044-0.089c-0.415,0.054-0.846,0.134-1.293,0.241c-0.042,0.257-0.03,0.552,0.046,0.844 c0.015,0.056,0.031,0.11,0.05,0.163c0.421-0.106,0.828-0.187,1.218-0.242C18.781,11.583,18.774,11.584,18.766,11.585z"/><path fill="#89a6ce" d="M18.962 10.554c.002 0 .004 0 .006-.001C18.966 10.553 18.964 10.554 18.962 10.554zM18.766 11.585c-.003-.017-.006-.034-.008-.051-.05-.342-.014-.686.085-.966-.223.027-.451.062-.683.105-.074.274-.087.601-.021.925.006.031.014.062.021.093.222-.045.439-.082.652-.112C18.797 11.581 18.782 11.583 18.766 11.585z"/><path fill="#fff" d="M5.125,19.585l-0.987,0.157c0.071,0.443,0.167,0.877,0.287,1.299c0.19,0.023,0.396,0.02,0.604-0.014 c0.146-0.024,0.281-0.061,0.403-0.109C5.301,20.487,5.198,20.042,5.125,19.585z"/><path fill="#c9ded1" d="M5.284,20.381c-0.168-0.008-0.346,0.004-0.523,0.039c-0.171,0.034-0.326,0.086-0.459,0.152 c0.107,0.45,0.24,0.888,0.398,1.313c0.206,0.023,0.43,0.016,0.653-0.029c0.132-0.026,0.255-0.064,0.366-0.11 C5.544,21.307,5.398,20.851,5.284,20.381z"/><g><path fill="#94bda4" d="M5.021 22.651c.013.029.026.057.04.086 0 0 0 0 0 0C5.047 22.708 5.034 22.68 5.021 22.651zM4.851 22.266c.108-.056.23-.104.365-.141.211-.058.427-.081.631-.074.073.166.15.33.232.491 0 0 0 0 0 0-.214-.424-.4-.867-.554-1.326-.174-.004-.356.014-.536.057-.167.039-.316.096-.445.164.111.341.237.673.379.997C4.899 22.378 4.875 22.322 4.851 22.266zM4.995 22.596c-.021-.047-.042-.093-.063-.14C4.953 22.503 4.974 22.549 4.995 22.596z"/></g></svg>